# xmcd
#
# Track frame offsets: 
#        205
#        17127
#        33517
#        48407
#        65820
#        83127
#        98072
#        113692
#        128002
#        144430
#        158487
#        174370
#        192060
#
# Disc length: 2784 seconds
#
# Revision: 2
# Processed by: cddbd v1.5.2PL0 Copyright (c) Steve Scherf et al.
# Submitted via: ExactAudioCopy v0.99pb3
#
DISCID=a00ade0d
DTITLE=Michael Roach - Ain't Got Me Ne Home
DYEAR=1993
DGENRE=Blues
TTITLE0=My Black Mama House
TTITLE1=Ain't Got Me No Home
TTITLE2=Take Me Back Blues
TTITLE3=In My Neighbourhood
TTITLE4=Bring It With You When You Come
TTITLE5=Prison Bound
TTITLE6=Freedom Bound
TTITLE7=San Francisco Bay Blues
TTITLE8=Stoop Down
TTITLE9=Left Handed Blues
TTITLE10=Sure You'te Right
TTITLE11=Backbone
TTITLE12=Kassie Jones
EXTD=
EXTT0=
EXTT1=
EXTT2=
EXTT3=
EXTT4=
EXTT5=
EXTT6=
EXTT7=
EXTT8=
EXTT9=
EXTT10=
EXTT11=
EXTT12=
PLAYORDER=
